<?xml version="1.0" encoding="UTF-8" standalone="no"?>
<!DOCTYPE svg PUBLIC "-//W3C//DTD SVG 1.1//EN" "http://www.w3.org/Graphics/SVG/1.1/DTD/svg11.dtd">
<svg width="100%" height="100%" viewBox="0 0 500 500" version="1.1" xmlns="http://www.w3.org/2000/svg" xmlns:xlink="http://www.w3.org/1999/xlink" xml:space="preserve" xmlns:serif="http://www.serif.com/" style="fill-rule:evenodd;clip-rule:evenodd;stroke-linejoin:round;stroke-miterlimit:2;">
    <g transform="matrix(1.88036,0,0,1.88036,-658.646,-307.761)">
        <path d="M418.057,186.715C417.763,184.593 418.562,183.456 420.68,183.506L447.292,181.405L452.177,254.689C452.308,257 453.558,258.191 456.129,258.062L504.106,258.823C505.98,258.951 506.994,258.327 507.208,257.003C507.273,256.601 507.208,254.136 507.208,254.136L507.956,225.751C507.956,225.751 508.033,222.819 508.082,220.963C508.103,220.178 507.477,219.143 506.372,219.103C500.223,218.88 479.967,221.127 479.967,221.127L479.463,181.66L554.524,182.616L569.235,182.682L569.23,224.773L545.413,222.025C543.991,221.744 543.477,222.766 543.483,224.449L538.954,282.769L551.209,398.176L510.794,399.821C510.794,399.821 508.955,399.988 508.776,400.014C507.761,400.162 507.219,399.701 507.149,398.634C507.138,398.462 507.096,397.329 507.096,397.329L500.399,307.791C500.399,307.791 501.165,303.195 494.527,303.195C487.888,303.195 457.249,306.515 457.249,306.515C457.249,306.515 453.164,306.259 453.675,311.11C454.132,315.45 457.244,389.459 457.896,405.021C457.923,405.672 457.933,406.698 457.349,407.05C456.287,407.692 454.307,407.357 454.307,407.357L408.993,400.985L418.057,186.715Z" style="fill:rgb(0,128,176);fill-opacity:0.5;"/>
    </g>
    <g transform="matrix(0.450982,0,0,0.450982,182.535,233.787)">
        <path d="M461.47,148.608L496.877,112.702C496.877,112.702 506.352,97.742 522.808,115.694C539.265,133.647 686.875,288.239 686.875,288.239C686.875,288.239 704.827,298.212 687.374,315.168C669.92,332.123 518.819,492.699 518.819,492.699C518.819,492.699 508.845,503.67 499.37,494.195C489.895,484.72 461.969,454.3 461.969,454.3C461.969,454.3 449.003,445.823 458.478,435.35C467.953,424.878 585.144,301.205 585.144,301.205L459.974,169.054C459.974,169.054 449.003,161.573 461.47,148.608Z" style="fill:rgb(0,128,176);fill-opacity:0.5;"/>
    </g>
    <g transform="matrix(-0.450982,0,0,0.450982,315.755,-14.203)">
        <path d="M461.47,148.608L496.877,112.702C496.877,112.702 506.352,97.742 522.808,115.694C539.265,133.647 686.875,288.239 686.875,288.239C686.875,288.239 704.827,298.212 687.374,315.168C669.92,332.123 518.819,492.699 518.819,492.699C518.819,492.699 508.845,503.67 499.37,494.195C489.895,484.72 461.969,454.3 461.969,454.3C461.969,454.3 449.003,445.823 458.478,435.35C467.953,424.878 585.144,301.205 585.144,301.205L459.974,169.054C459.974,169.054 449.003,161.573 461.47,148.608Z" style="fill:rgb(0,128,176);fill-opacity:0.5;"/>
    </g>
</svg>
