<?xml version="1.0" encoding="UTF-8" standalone="no"?>
<!DOCTYPE svg PUBLIC "-//W3C//DTD SVG 1.1//EN" "http://www.w3.org/Graphics/SVG/1.1/DTD/svg11.dtd">
<svg width="100%" height="100%" viewBox="0 0 550 400" version="1.1" xmlns="http://www.w3.org/2000/svg" xmlns:xlink="http://www.w3.org/1999/xlink" xml:space="preserve" xmlns:serif="http://www.serif.com/" style="fill-rule:evenodd;clip-rule:evenodd;stroke-linecap:round;stroke-linejoin:round;stroke-miterlimit:1.5;">
    <g transform="matrix(1,0,0,0.864317,17,2.04345)">
        <g transform="matrix(0.956395,0,0,0.94305,12.027352,22.68342)">
            <path d="M0.704,56.394C0.704,56.394 -3.424,3.014 48.869,1.349C96.145,-0.157 391.23,0.449 447.428,0.579C449.245,0.583 458.481,0.195 460.823,0.362C473.283,1.249 508.891,11.048 504.833,60.693C504.697,62.349 504.778,64.146 504.75,66.059C504.238,101.751 503.735,179.574 503.4,239.178C503.325,252.517 503.35,302.975 503.497,318.384C503.641,333.553 503.729,348.061 503.489,349.976C503.31,351.411 503.103,352.807 502.87,354.166C498.304,380.823 483.64,392.945 462.457,395.647C457.771,396.244 441.194,395.976 441.194,395.976L44.282,398.307C44.282,398.307 0.245,394.638 0.704,347.849C1.163,301.06 0.704,56.394 0.704,56.394Z" style="fill:rgb(234,234,234);stroke:rgb(234,234,234);stroke-width:3.81px;"/>
        </g>
        <g transform="matrix(0.522727,0,0,0.604787,164.75,-25.056879)">
            <circle cx="99" cy="203" r="22" style="fill:rgb(215,74,73);fill-opacity:0.25;"/>
        </g>
        <g transform="matrix(0.522727,0,0,0.604787,202.75,-25.056879)">
            <circle cx="99" cy="203" r="22" style="fill:white;fill-opacity:0.25;"/>
        </g>
        <g transform="matrix(0.522727,0,0,0.604787,240.75,-25.056879)">
            <circle cx="99" cy="203" r="22" style="fill:rgb(139,160,164);fill-opacity:0.25;"/>
        </g>
    </g>
    <g transform="matrix(0.519276,0,0,0.519276,246.656724,7.507679)">
        <path d="M320.717,32.259L456.186,32.447C456.186,32.447 469.917,31.956 471.469,47.478C471.657,49.357 470.906,63.449 456.25,63.449C441.595,63.449 321.345,63.261 321.345,63.261C321.345,63.261 305.563,64.016 305.563,45.787C305.563,43.72 307.5,33.95 320.717,32.259Z" style="fill:rgb(234,234,234);"/>
    </g>
    <g id="design_services.svg.svg">
    </g>
</svg>
